<svg width="798" height="139" viewBox="0 0 798 139" fill="none" xmlns="http://www.w3.org/2000/svg">
<path d="M68.5 12.6562C57.653 12.6563 47.0495 15.8728 38.0305 21.8991C29.0115 27.9254 21.982 36.4908 17.831 46.5122C13.68 56.5336 12.5939 67.5608 14.7101 78.1995C16.8262 88.8381 22.0496 98.6104 29.7196 106.28C37.3897 113.95 47.1619 119.174 57.8005 121.29C68.4392 123.406 79.4664 122.32 89.4878 118.169C99.5092 114.018 108.075 106.989 114.101 97.9696C120.127 88.9505 123.344 78.3471 123.344 67.5C123.328 52.9592 117.545 39.0184 107.263 28.7366C96.9816 18.4547 83.0408 12.6716 68.5 12.6562ZM114.906 67.5C114.911 73.4536 113.765 79.352 111.531 84.8707L87.959 70.374C86.9568 69.7556 85.8356 69.3549 84.6684 69.198L72.6344 67.5738C70.9762 67.3576 69.291 67.6356 67.7901 68.3729C66.2892 69.1102 65.0392 70.2741 64.1969 71.7188H59.5985L57.5946 67.5738C57.0406 66.4197 56.2298 65.4076 55.2243 64.6151C54.2189 63.8227 53.0454 63.2708 51.7938 63.0018L47.575 62.0895L51.6989 54.8438H60.5108C61.9367 54.841 63.3388 54.4782 64.5871 53.7891L71.0471 50.2242C71.6146 49.9079 72.1452 49.5294 72.6291 49.0957L86.8199 36.2602C88.2427 34.9851 89.1884 33.2632 89.5009 31.3784C89.8134 29.4936 89.4742 27.5586 88.5391 25.8926L88.3492 25.5498C96.29 29.315 103 35.255 107.701 42.6803C112.401 50.1057 114.9 58.7118 114.906 67.5ZM22.0938 67.5C22.0867 60.6024 23.6256 53.791 26.5973 47.5664L32.5774 63.5291C33.0757 64.8508 33.8979 66.0261 34.9685 66.9475C36.0391 67.8689 37.3239 68.5067 38.7051 68.8025L50.0061 71.2336L52.0153 75.4102C52.7125 76.8307 53.7932 78.0279 55.135 78.8666C56.4769 79.7052 58.0266 80.152 59.609 80.1562H60.3895L56.5768 88.715C55.905 90.2221 55.6898 91.893 55.9579 93.5211C56.226 95.1492 56.9655 96.6629 58.085 97.875L58.1588 97.9488L68.5 108.601L67.477 113.875C55.3577 113.593 43.8286 108.585 35.3497 99.9212C26.8709 91.2572 22.1139 79.6225 22.0938 67.5Z" fill="url(#paint0_linear_170_2)"/>
<path d="M68.5 12.6562C57.653 12.6563 47.0495 15.8728 38.0305 21.8991C29.0115 27.9254 21.982 36.4908 17.831 46.5122C13.68 56.5336 12.5939 67.5608 14.7101 78.1995C16.8262 88.8381 22.0496 98.6104 29.7196 106.28C37.3897 113.95 47.1619 119.174 57.8005 121.29C68.4392 123.406 79.4664 122.32 89.4878 118.169C99.5092 114.018 108.075 106.989 114.101 97.9696C120.127 88.9505 123.344 78.3471 123.344 67.5C123.328 52.9592 117.545 39.0184 107.263 28.7366C96.9816 18.4547 83.0408 12.6716 68.5 12.6562ZM114.906 67.5C114.911 73.4536 113.765 79.352 111.531 84.8707L87.959 70.374C86.9568 69.7556 85.8356 69.3549 84.6684 69.198L72.6344 67.5738C70.9762 67.3576 69.291 67.6356 67.7901 68.3729C66.2892 69.1102 65.0392 70.2741 64.1969 71.7188H59.5985L57.5946 67.5738C57.0406 66.4197 56.2298 65.4076 55.2243 64.6151C54.2189 63.8227 53.0454 63.2708 51.7938 63.0018L47.575 62.0895L51.6989 54.8438H60.5108C61.9367 54.841 63.3388 54.4782 64.5871 53.7891L71.0471 50.2242C71.6146 49.9079 72.1452 49.5294 72.6291 49.0957L86.8199 36.2602C88.2427 34.9851 89.1884 33.2632 89.5009 31.3784C89.8134 29.4936 89.4742 27.5586 88.5391 25.8926L88.3492 25.5498C96.29 29.315 103 35.255 107.701 42.6803C112.401 50.1057 114.9 58.7118 114.906 67.5ZM22.0938 67.5C22.0867 60.6024 23.6256 53.791 26.5973 47.5664L32.5774 63.5291C33.0757 64.8508 33.8979 66.0261 34.9685 66.9475C36.0391 67.8689 37.3239 68.5067 38.7051 68.8025L50.0061 71.2336L52.0153 75.4102C52.7125 76.8307 53.7932 78.0279 55.135 78.8666C56.4769 79.7052 58.0266 80.152 59.609 80.1562H60.3895L56.5768 88.715C55.905 90.2221 55.6898 91.893 55.9579 93.5211C56.226 95.1492 56.9655 96.6629 58.085 97.875L58.1588 97.9488L68.5 108.601L67.477 113.875C55.3577 113.593 43.8286 108.585 35.3497 99.9212C26.8709 91.2572 22.1139 79.6225 22.0938 67.5Z" fill="url(#paint1_radial_170_2)"/>
<path d="M234.603 54.2874H219.661C219.235 51.8371 218.449 49.6665 217.304 47.7755C216.159 45.8579 214.734 44.2333 213.03 42.9016C211.325 41.5699 209.381 40.5711 207.197 39.9053C205.039 39.2128 202.709 38.8666 200.206 38.8666C195.758 38.8666 191.816 39.9852 188.38 42.2224C184.944 44.433 182.255 47.6823 180.31 51.9703C178.366 56.2317 177.394 61.4385 177.394 67.5909C177.394 73.8497 178.366 79.1232 180.31 83.4112C182.281 87.6725 184.971 90.8952 188.38 93.0791C191.816 95.2365 195.744 96.3151 200.166 96.3151C202.616 96.3151 204.906 95.9955 207.037 95.3563C209.194 94.6905 211.125 93.7183 212.83 92.4399C214.561 91.1615 216.012 89.5901 217.184 87.7258C218.383 85.8615 219.209 83.7308 219.661 81.3338L234.603 81.4137C234.043 85.3021 232.832 88.9509 230.967 92.36C229.13 95.7691 226.719 98.7787 223.736 101.389C220.753 103.972 217.264 105.996 213.269 107.461C209.274 108.899 204.84 109.619 199.966 109.619C192.775 109.619 186.356 107.954 180.71 104.625C175.063 101.296 170.616 96.4882 167.366 90.2027C164.117 83.9172 162.492 76.3799 162.492 67.5909C162.492 58.7752 164.13 51.2379 167.406 44.979C170.682 38.6935 175.143 33.8861 180.79 30.5569C186.436 27.2277 192.828 25.5632 199.966 25.5632C204.52 25.5632 208.755 26.2024 212.67 27.4808C216.585 28.7592 220.074 30.6368 223.137 33.1138C226.2 35.564 228.717 38.5736 230.688 42.1425C232.685 45.6848 233.99 49.7331 234.603 54.2874Z" fill="black"/>
<path d="M234.603 54.2874H219.661C219.235 51.8371 218.449 49.6665 217.304 47.7755C216.159 45.8579 214.734 44.2333 213.03 42.9016C211.325 41.5699 209.381 40.5711 207.197 39.9053C205.039 39.2128 202.709 38.8666 200.206 38.8666C195.758 38.8666 191.816 39.9852 188.38 42.2224C184.944 44.433 182.255 47.6823 180.31 51.9703C178.366 56.2317 177.394 61.4385 177.394 67.5909C177.394 73.8497 178.366 79.1232 180.31 83.4112C182.281 87.6725 184.971 90.8952 188.38 93.0791C191.816 95.2365 195.744 96.3151 200.166 96.3151C202.616 96.3151 204.906 95.9955 207.037 95.3563C209.194 94.6905 211.125 93.7183 212.83 92.4399C214.561 91.1615 216.012 89.5901 217.184 87.7258C218.383 85.8615 219.209 83.7308 219.661 81.3338L234.603 81.4137C234.043 85.3021 232.832 88.9509 230.967 92.36C229.13 95.7691 226.719 98.7787 223.736 101.389C220.753 103.972 217.264 105.996 213.269 107.461C209.274 108.899 204.84 109.619 199.966 109.619C192.775 109.619 186.356 107.954 180.71 104.625C175.063 101.296 170.616 96.4882 167.366 90.2027C164.117 83.9172 162.492 76.3799 162.492 67.5909C162.492 58.7752 164.13 51.2379 167.406 44.979C170.682 38.6935 175.143 33.8861 180.79 30.5569C186.436 27.2277 192.828 25.5632 199.966 25.5632C204.52 25.5632 208.755 26.2024 212.67 27.4808C216.585 28.7592 220.074 30.6368 223.137 33.1138C226.2 35.564 228.717 38.5736 230.688 42.1425C232.685 45.6848 233.99 49.7331 234.603 54.2874Z" fill="url(#paint2_linear_170_2)"/>
<path d="M234.603 54.2874H219.661C219.235 51.8371 218.449 49.6665 217.304 47.7755C216.159 45.8579 214.734 44.2333 213.03 42.9016C211.325 41.5699 209.381 40.5711 207.197 39.9053C205.039 39.2128 202.709 38.8666 200.206 38.8666C195.758 38.8666 191.816 39.9852 188.38 42.2224C184.944 44.433 182.255 47.6823 180.31 51.9703C178.366 56.2317 177.394 61.4385 177.394 67.5909C177.394 73.8497 178.366 79.1232 180.31 83.4112C182.281 87.6725 184.971 90.8952 188.38 93.0791C191.816 95.2365 195.744 96.3151 200.166 96.3151C202.616 96.3151 204.906 95.9955 207.037 95.3563C209.194 94.6905 211.125 93.7183 212.83 92.4399C214.561 91.1615 216.012 89.5901 217.184 87.7258C218.383 85.8615 219.209 83.7308 219.661 81.3338L234.603 81.4137C234.043 85.3021 232.832 88.9509 230.967 92.36C229.13 95.7691 226.719 98.7787 223.736 101.389C220.753 103.972 217.264 105.996 213.269 107.461C209.274 108.899 204.84 109.619 199.966 109.619C192.775 109.619 186.356 107.954 180.71 104.625C175.063 101.296 170.616 96.4882 167.366 90.2027C164.117 83.9172 162.492 76.3799 162.492 67.5909C162.492 58.7752 164.13 51.2379 167.406 44.979C170.682 38.6935 175.143 33.8861 180.79 30.5569C186.436 27.2277 192.828 25.5632 199.966 25.5632C204.52 25.5632 208.755 26.2024 212.67 27.4808C216.585 28.7592 220.074 30.6368 223.137 33.1138C226.2 35.564 228.717 38.5736 230.688 42.1425C232.685 45.6848 233.99 49.7331 234.603 54.2874Z" fill="url(#paint3_radial_170_2)"/>
<path d="M244.162 108.5V47.1363H258.624V108.5H244.162ZM251.433 38.4271C249.142 38.4271 247.171 37.6681 245.52 36.15C243.869 34.6052 243.043 32.7542 243.043 30.5969C243.043 28.4129 243.869 26.5619 245.52 25.0438C247.171 23.4991 249.142 22.7267 251.433 22.7267C253.75 22.7267 255.721 23.4991 257.345 25.0438C258.996 26.5619 259.822 28.4129 259.822 30.5969C259.822 32.7542 258.996 34.6052 257.345 36.15C255.721 37.6681 253.75 38.4271 251.433 38.4271Z" fill="black"/>
<path d="M244.162 108.5V47.1363H258.624V108.5H244.162ZM251.433 38.4271C249.142 38.4271 247.171 37.6681 245.52 36.15C243.869 34.6052 243.043 32.7542 243.043 30.5969C243.043 28.4129 243.869 26.5619 245.52 25.0438C247.171 23.4991 249.142 22.7267 251.433 22.7267C253.75 22.7267 255.721 23.4991 257.345 25.0438C258.996 26.5619 259.822 28.4129 259.822 30.5969C259.822 32.7542 258.996 34.6052 257.345 36.15C255.721 37.6681 253.75 38.4271 251.433 38.4271Z" fill="url(#paint4_linear_170_2)"/>
<path d="M244.162 108.5V47.1363H258.624V108.5H244.162ZM251.433 38.4271C249.142 38.4271 247.171 37.6681 245.52 36.15C243.869 34.6052 243.043 32.7542 243.043 30.5969C243.043 28.4129 243.869 26.5619 245.52 25.0438C247.171 23.4991 249.142 22.7267 251.433 22.7267C253.75 22.7267 255.721 23.4991 257.345 25.0438C258.996 26.5619 259.822 28.4129 259.822 30.5969C259.822 32.7542 258.996 34.6052 257.345 36.15C255.721 37.6681 253.75 38.4271 251.433 38.4271Z" fill="url(#paint5_radial_170_2)"/>
<path d="M300.762 47.1363V58.3224H265.486V47.1363H300.762ZM274.195 32.4346H288.657V90.0429C288.657 91.9872 288.95 93.4786 289.536 94.5173C290.148 95.5294 290.948 96.2219 291.933 96.5948C292.918 96.9676 294.01 97.1541 295.209 97.1541C296.114 97.1541 296.94 97.0875 297.686 96.9543C298.458 96.8211 299.044 96.7013 299.444 96.5948L301.881 107.901C301.108 108.167 300.003 108.46 298.565 108.78C297.153 109.099 295.422 109.286 293.371 109.339C289.749 109.445 286.486 108.899 283.583 107.701C280.68 106.476 278.376 104.585 276.672 102.028C274.994 99.4712 274.168 96.2752 274.195 92.4399V32.4346Z" fill="black"/>
<path d="M300.762 47.1363V58.3224H265.486V47.1363H300.762ZM274.195 32.4346H288.657V90.0429C288.657 91.9872 288.95 93.4786 289.536 94.5173C290.148 95.5294 290.948 96.2219 291.933 96.5948C292.918 96.9676 294.01 97.1541 295.209 97.1541C296.114 97.1541 296.94 97.0875 297.686 96.9543C298.458 96.8211 299.044 96.7013 299.444 96.5948L301.881 107.901C301.108 108.167 300.003 108.46 298.565 108.78C297.153 109.099 295.422 109.286 293.371 109.339C289.749 109.445 286.486 108.899 283.583 107.701C280.68 106.476 278.376 104.585 276.672 102.028C274.994 99.4712 274.168 96.2752 274.195 92.4399V32.4346Z" fill="url(#paint6_linear_170_2)"/>
<path d="M300.762 47.1363V58.3224H265.486V47.1363H300.762ZM274.195 32.4346H288.657V90.0429C288.657 91.9872 288.95 93.4786 289.536 94.5173C290.148 95.5294 290.948 96.2219 291.933 96.5948C292.918 96.9676 294.01 97.1541 295.209 97.1541C296.114 97.1541 296.94 97.0875 297.686 96.9543C298.458 96.8211 299.044 96.7013 299.444 96.5948L301.881 107.901C301.108 108.167 300.003 108.46 298.565 108.78C297.153 109.099 295.422 109.286 293.371 109.339C289.749 109.445 286.486 108.899 283.583 107.701C280.68 106.476 278.376 104.585 276.672 102.028C274.994 99.4712 274.168 96.2752 274.195 92.4399V32.4346Z" fill="url(#paint7_radial_170_2)"/>
<path d="M318.471 131.511C316.5 131.511 314.675 131.352 312.998 131.032C311.346 130.739 310.028 130.393 309.042 129.993L312.398 118.727C314.502 119.34 316.38 119.633 318.031 119.606C319.683 119.579 321.134 119.06 322.386 118.048C323.664 117.063 324.743 115.411 325.622 113.094L326.86 109.778L304.608 47.1363H319.949L334.091 93.4786H334.73L348.913 47.1363H364.294L339.724 115.931C338.579 119.18 337.061 121.963 335.17 124.28C333.279 126.624 330.962 128.409 328.219 129.634C325.502 130.885 322.253 131.511 318.471 131.511Z" fill="black"/>
<path d="M318.471 131.511C316.5 131.511 314.675 131.352 312.998 131.032C311.346 130.739 310.028 130.393 309.042 129.993L312.398 118.727C314.502 119.34 316.38 119.633 318.031 119.606C319.683 119.579 321.134 119.06 322.386 118.048C323.664 117.063 324.743 115.411 325.622 113.094L326.86 109.778L304.608 47.1363H319.949L334.091 93.4786H334.73L348.913 47.1363H364.294L339.724 115.931C338.579 119.18 337.061 121.963 335.17 124.28C333.279 126.624 330.962 128.409 328.219 129.634C325.502 130.885 322.253 131.511 318.471 131.511Z" fill="url(#paint8_linear_170_2)"/>
<path d="M318.471 131.511C316.5 131.511 314.675 131.352 312.998 131.032C311.346 130.739 310.028 130.393 309.042 129.993L312.398 118.727C314.502 119.34 316.38 119.633 318.031 119.606C319.683 119.579 321.134 119.06 322.386 118.048C323.664 117.063 324.743 115.411 325.622 113.094L326.86 109.778L304.608 47.1363H319.949L334.091 93.4786H334.73L348.913 47.1363H364.294L339.724 115.931C338.579 119.18 337.061 121.963 335.17 124.28C333.279 126.624 330.962 128.409 328.219 129.634C325.502 130.885 322.253 131.511 318.471 131.511Z" fill="url(#paint9_radial_170_2)"/>
<path d="M371.565 108.5V26.6818H424.779V39.1063H386.387V61.3187H422.023V73.7432H386.387V96.0754H425.099V108.5H371.565Z" fill="black"/>
<path d="M371.565 108.5V26.6818H424.779V39.1063H386.387V61.3187H422.023V73.7432H386.387V96.0754H425.099V108.5H371.565Z" fill="url(#paint10_linear_170_2)"/>
<path d="M371.565 108.5V26.6818H424.779V39.1063H386.387V61.3187H422.023V73.7432H386.387V96.0754H425.099V108.5H371.565Z" fill="url(#paint11_radial_170_2)"/>
<path d="M447.711 47.1363L460.096 69.7881L472.68 47.1363H487.981L469.484 77.8181L488.301 108.5H473.08L460.096 86.4074L447.232 108.5H431.891L450.588 77.8181L432.371 47.1363H447.711Z" fill="black"/>
<path d="M447.711 47.1363L460.096 69.7881L472.68 47.1363H487.981L469.484 77.8181L488.301 108.5H473.08L460.096 86.4074L447.232 108.5H431.891L450.588 77.8181L432.371 47.1363H447.711Z" fill="url(#paint12_linear_170_2)"/>
<path d="M447.711 47.1363L460.096 69.7881L472.68 47.1363H487.981L469.484 77.8181L488.301 108.5H473.08L460.096 86.4074L447.232 108.5H431.891L450.588 77.8181L432.371 47.1363H447.711Z" fill="url(#paint13_radial_170_2)"/>
<path d="M495.792 131.511V47.1363H510.015V57.2837H510.854C511.599 55.7922 512.651 54.2075 514.01 52.5296C515.368 50.8251 517.206 49.3735 519.523 48.175C521.84 46.9499 524.796 46.3373 528.392 46.3373C533.133 46.3373 537.407 47.5491 541.216 49.9728C545.051 52.3698 548.087 55.9254 550.325 60.6395C552.588 65.327 553.72 71.0798 553.72 77.898C553.72 84.6363 552.615 90.3625 550.404 95.0767C548.194 99.7908 545.184 103.386 541.376 105.863C537.567 108.34 533.253 109.579 528.432 109.579C524.916 109.579 522 108.993 519.683 107.821C517.366 106.649 515.501 105.237 514.09 103.586C512.705 101.908 511.626 100.323 510.854 98.832H510.254V131.511H495.792ZM509.975 77.8181C509.975 81.7865 510.534 85.2622 511.653 88.2452C512.798 91.2281 514.436 93.5585 516.567 95.2365C518.724 96.8877 521.334 97.7134 524.397 97.7134C527.593 97.7134 530.27 96.8611 532.427 95.1565C534.584 93.4254 536.209 91.0683 537.301 88.0854C538.419 85.0758 538.979 81.6534 538.979 77.8181C538.979 74.0095 538.433 70.6271 537.341 67.6708C536.249 64.7144 534.624 62.3973 532.467 60.7194C530.309 59.0415 527.62 58.2025 524.397 58.2025C521.307 58.2025 518.684 59.0149 516.527 60.6395C514.369 62.2641 512.731 64.5413 511.613 67.471C510.521 70.4007 509.975 73.8497 509.975 77.8181Z" fill="black"/>
<path d="M495.792 131.511V47.1363H510.015V57.2837H510.854C511.599 55.7922 512.651 54.2075 514.01 52.5296C515.368 50.8251 517.206 49.3735 519.523 48.175C521.84 46.9499 524.796 46.3373 528.392 46.3373C533.133 46.3373 537.407 47.5491 541.216 49.9728C545.051 52.3698 548.087 55.9254 550.325 60.6395C552.588 65.327 553.72 71.0798 553.72 77.898C553.72 84.6363 552.615 90.3625 550.404 95.0767C548.194 99.7908 545.184 103.386 541.376 105.863C537.567 108.34 533.253 109.579 528.432 109.579C524.916 109.579 522 108.993 519.683 107.821C517.366 106.649 515.501 105.237 514.09 103.586C512.705 101.908 511.626 100.323 510.854 98.832H510.254V131.511H495.792ZM509.975 77.8181C509.975 81.7865 510.534 85.2622 511.653 88.2452C512.798 91.2281 514.436 93.5585 516.567 95.2365C518.724 96.8877 521.334 97.7134 524.397 97.7134C527.593 97.7134 530.27 96.8611 532.427 95.1565C534.584 93.4254 536.209 91.0683 537.301 88.0854C538.419 85.0758 538.979 81.6534 538.979 77.8181C538.979 74.0095 538.433 70.6271 537.341 67.6708C536.249 64.7144 534.624 62.3973 532.467 60.7194C530.309 59.0415 527.62 58.2025 524.397 58.2025C521.307 58.2025 518.684 59.0149 516.527 60.6395C514.369 62.2641 512.731 64.5413 511.613 67.471C510.521 70.4007 509.975 73.8497 509.975 77.8181Z" fill="url(#paint14_linear_170_2)"/>
<path d="M495.792 131.511V47.1363H510.015V57.2837H510.854C511.599 55.7922 512.651 54.2075 514.01 52.5296C515.368 50.8251 517.206 49.3735 519.523 48.175C521.84 46.9499 524.796 46.3373 528.392 46.3373C533.133 46.3373 537.407 47.5491 541.216 49.9728C545.051 52.3698 548.087 55.9254 550.325 60.6395C552.588 65.327 553.72 71.0798 553.72 77.898C553.72 84.6363 552.615 90.3625 550.404 95.0767C548.194 99.7908 545.184 103.386 541.376 105.863C537.567 108.34 533.253 109.579 528.432 109.579C524.916 109.579 522 108.993 519.683 107.821C517.366 106.649 515.501 105.237 514.09 103.586C512.705 101.908 511.626 100.323 510.854 98.832H510.254V131.511H495.792ZM509.975 77.8181C509.975 81.7865 510.534 85.2622 511.653 88.2452C512.798 91.2281 514.436 93.5585 516.567 95.2365C518.724 96.8877 521.334 97.7134 524.397 97.7134C527.593 97.7134 530.27 96.8611 532.427 95.1565C534.584 93.4254 536.209 91.0683 537.301 88.0854C538.419 85.0758 538.979 81.6534 538.979 77.8181C538.979 74.0095 538.433 70.6271 537.341 67.6708C536.249 64.7144 534.624 62.3973 532.467 60.7194C530.309 59.0415 527.62 58.2025 524.397 58.2025C521.307 58.2025 518.684 59.0149 516.527 60.6395C514.369 62.2641 512.731 64.5413 511.613 67.471C510.521 70.4007 509.975 73.8497 509.975 77.8181Z" fill="url(#paint15_radial_170_2)"/>
<path d="M577.192 26.6818V108.5H562.73V26.6818H577.192Z" fill="black"/>
<path d="M577.192 26.6818V108.5H562.73V26.6818H577.192Z" fill="url(#paint16_linear_170_2)"/>
<path d="M577.192 26.6818V108.5H562.73V26.6818H577.192Z" fill="url(#paint17_radial_170_2)"/>
<path d="M615.455 109.698C609.463 109.698 604.269 108.38 599.875 105.743C595.48 103.107 592.071 99.4179 589.647 94.6771C587.25 89.9364 586.052 84.3966 586.052 78.0578C586.052 71.7191 587.25 66.166 589.647 61.3986C592.071 56.6312 595.48 52.9291 599.875 50.2924C604.269 47.6557 609.463 46.3373 615.455 46.3373C621.448 46.3373 626.641 47.6557 631.036 50.2924C635.43 52.9291 638.826 56.6312 641.223 61.3986C643.647 66.166 644.859 71.7191 644.859 78.0578C644.859 84.3966 643.647 89.9364 641.223 94.6771C638.826 99.4179 635.43 103.107 631.036 105.743C626.641 108.38 621.448 109.698 615.455 109.698ZM615.535 98.1129C618.784 98.1129 621.501 97.2206 623.685 95.4362C625.869 93.6251 627.493 91.2015 628.559 88.1653C629.651 85.129 630.197 81.7466 630.197 78.0179C630.197 74.2626 629.651 70.8668 628.559 67.8306C627.493 64.7677 625.869 62.3307 623.685 60.5197C621.501 58.7086 618.784 57.803 615.535 57.803C612.206 57.803 609.436 58.7086 607.225 60.5197C605.041 62.3307 603.403 64.7677 602.311 67.8306C601.246 70.8668 600.713 74.2626 600.713 78.0179C600.713 81.7466 601.246 85.129 602.311 88.1653C603.403 91.2015 605.041 93.6251 607.225 95.4362C609.436 97.2206 612.206 98.1129 615.535 98.1129Z" fill="black"/>
<path d="M615.455 109.698C609.463 109.698 604.269 108.38 599.875 105.743C595.48 103.107 592.071 99.4179 589.647 94.6771C587.25 89.9364 586.052 84.3966 586.052 78.0578C586.052 71.7191 587.25 66.166 589.647 61.3986C592.071 56.6312 595.48 52.9291 599.875 50.2924C604.269 47.6557 609.463 46.3373 615.455 46.3373C621.448 46.3373 626.641 47.6557 631.036 50.2924C635.43 52.9291 638.826 56.6312 641.223 61.3986C643.647 66.166 644.859 71.7191 644.859 78.0578C644.859 84.3966 643.647 89.9364 641.223 94.6771C638.826 99.4179 635.43 103.107 631.036 105.743C626.641 108.38 621.448 109.698 615.455 109.698ZM615.535 98.1129C618.784 98.1129 621.501 97.2206 623.685 95.4362C625.869 93.6251 627.493 91.2015 628.559 88.1653C629.651 85.129 630.197 81.7466 630.197 78.0179C630.197 74.2626 629.651 70.8668 628.559 67.8306C627.493 64.7677 625.869 62.3307 623.685 60.5197C621.501 58.7086 618.784 57.803 615.535 57.803C612.206 57.803 609.436 58.7086 607.225 60.5197C605.041 62.3307 603.403 64.7677 602.311 67.8306C601.246 70.8668 600.713 74.2626 600.713 78.0179C600.713 81.7466 601.246 85.129 602.311 88.1653C603.403 91.2015 605.041 93.6251 607.225 95.4362C609.436 97.2206 612.206 98.1129 615.535 98.1129Z" fill="url(#paint18_linear_170_2)"/>
<path d="M615.455 109.698C609.463 109.698 604.269 108.38 599.875 105.743C595.48 103.107 592.071 99.4179 589.647 94.6771C587.25 89.9364 586.052 84.3966 586.052 78.0578C586.052 71.7191 587.25 66.166 589.647 61.3986C592.071 56.6312 595.48 52.9291 599.875 50.2924C604.269 47.6557 609.463 46.3373 615.455 46.3373C621.448 46.3373 626.641 47.6557 631.036 50.2924C635.43 52.9291 638.826 56.6312 641.223 61.3986C643.647 66.166 644.859 71.7191 644.859 78.0578C644.859 84.3966 643.647 89.9364 641.223 94.6771C638.826 99.4179 635.43 103.107 631.036 105.743C626.641 108.38 621.448 109.698 615.455 109.698ZM615.535 98.1129C618.784 98.1129 621.501 97.2206 623.685 95.4362C625.869 93.6251 627.493 91.2015 628.559 88.1653C629.651 85.129 630.197 81.7466 630.197 78.0179C630.197 74.2626 629.651 70.8668 628.559 67.8306C627.493 64.7677 625.869 62.3307 623.685 60.5197C621.501 58.7086 618.784 57.803 615.535 57.803C612.206 57.803 609.436 58.7086 607.225 60.5197C605.041 62.3307 603.403 64.7677 602.311 67.8306C601.246 70.8668 600.713 74.2626 600.713 78.0179C600.713 81.7466 601.246 85.129 602.311 88.1653C603.403 91.2015 605.041 93.6251 607.225 95.4362C609.436 97.2206 612.206 98.1129 615.535 98.1129Z" fill="url(#paint19_radial_170_2)"/>
<path d="M653.758 108.5V47.1363H667.781V57.3636H668.42C669.539 53.8213 671.456 51.0914 674.173 49.1738C676.916 47.2295 680.046 46.2574 683.561 46.2574C684.36 46.2574 685.252 46.2974 686.238 46.3773C687.25 46.4305 688.089 46.5237 688.755 46.6569V59.9604C688.142 59.7473 687.17 59.5608 685.838 59.401C684.533 59.2146 683.268 59.1214 682.043 59.1214C679.406 59.1214 677.036 59.694 674.932 60.8393C672.855 61.9579 671.217 63.5159 670.018 65.5134C668.819 67.511 668.22 69.8148 668.22 72.4248V108.5H653.758Z" fill="black"/>
<path d="M653.758 108.5V47.1363H667.781V57.3636H668.42C669.539 53.8213 671.456 51.0914 674.173 49.1738C676.916 47.2295 680.046 46.2574 683.561 46.2574C684.36 46.2574 685.252 46.2974 686.238 46.3773C687.25 46.4305 688.089 46.5237 688.755 46.6569V59.9604C688.142 59.7473 687.17 59.5608 685.838 59.401C684.533 59.2146 683.268 59.1214 682.043 59.1214C679.406 59.1214 677.036 59.694 674.932 60.8393C672.855 61.9579 671.217 63.5159 670.018 65.5134C668.819 67.511 668.22 69.8148 668.22 72.4248V108.5H653.758Z" fill="url(#paint20_linear_170_2)"/>
<path d="M653.758 108.5V47.1363H667.781V57.3636H668.42C669.539 53.8213 671.456 51.0914 674.173 49.1738C676.916 47.2295 680.046 46.2574 683.561 46.2574C684.36 46.2574 685.252 46.2974 686.238 46.3773C687.25 46.4305 688.089 46.5237 688.755 46.6569V59.9604C688.142 59.7473 687.17 59.5608 685.838 59.401C684.533 59.2146 683.268 59.1214 682.043 59.1214C679.406 59.1214 677.036 59.694 674.932 60.8393C672.855 61.9579 671.217 63.5159 670.018 65.5134C668.819 67.511 668.22 69.8148 668.22 72.4248V108.5H653.758Z" fill="url(#paint21_radial_170_2)"/>
<path d="M719.627 109.698C713.475 109.698 708.161 108.42 703.687 105.863C699.239 103.28 695.817 99.631 693.42 94.9168C691.023 90.1761 689.824 84.5964 689.824 78.1777C689.824 71.8655 691.023 66.3258 693.42 61.5584C695.843 56.7643 699.226 53.0356 703.567 50.3723C707.908 47.6823 713.009 46.3373 718.868 46.3373C722.65 46.3373 726.219 46.9499 729.575 48.175C732.957 49.3735 735.94 51.2379 738.524 53.7681C741.134 56.2982 743.184 59.5209 744.676 63.436C746.167 67.3245 746.913 71.9588 746.913 77.3387V81.7732H696.616V72.0253H733.05C733.024 69.2554 732.424 66.7918 731.253 64.6345C730.081 62.4506 728.443 60.7327 726.339 59.4809C724.261 58.2292 721.838 57.6033 719.068 57.6033C716.112 57.6033 713.515 58.3224 711.277 59.7606C709.04 61.1722 707.296 63.0365 706.044 65.3536C704.819 67.6441 704.193 70.161 704.166 72.9042V81.4137C704.166 84.9825 704.819 88.0454 706.124 90.6022C707.429 93.1324 709.253 95.0767 711.597 96.435C713.941 97.7666 716.684 98.4325 719.827 98.4325C721.931 98.4325 723.835 98.1395 725.54 97.5536C727.244 96.941 728.722 96.0488 729.974 94.8769C731.226 93.705 732.171 92.2535 732.811 90.5223L746.314 92.0404C745.462 95.6093 743.837 98.7254 741.44 101.389C739.07 104.026 736.033 106.076 732.331 107.541C728.629 108.979 724.394 109.698 719.627 109.698Z" fill="black"/>
<path d="M719.627 109.698C713.475 109.698 708.161 108.42 703.687 105.863C699.239 103.28 695.817 99.631 693.42 94.9168C691.023 90.1761 689.824 84.5964 689.824 78.1777C689.824 71.8655 691.023 66.3258 693.42 61.5584C695.843 56.7643 699.226 53.0356 703.567 50.3723C707.908 47.6823 713.009 46.3373 718.868 46.3373C722.65 46.3373 726.219 46.9499 729.575 48.175C732.957 49.3735 735.94 51.2379 738.524 53.7681C741.134 56.2982 743.184 59.5209 744.676 63.436C746.167 67.3245 746.913 71.9588 746.913 77.3387V81.7732H696.616V72.0253H733.05C733.024 69.2554 732.424 66.7918 731.253 64.6345C730.081 62.4506 728.443 60.7327 726.339 59.4809C724.261 58.2292 721.838 57.6033 719.068 57.6033C716.112 57.6033 713.515 58.3224 711.277 59.7606C709.04 61.1722 707.296 63.0365 706.044 65.3536C704.819 67.6441 704.193 70.161 704.166 72.9042V81.4137C704.166 84.9825 704.819 88.0454 706.124 90.6022C707.429 93.1324 709.253 95.0767 711.597 96.435C713.941 97.7666 716.684 98.4325 719.827 98.4325C721.931 98.4325 723.835 98.1395 725.54 97.5536C727.244 96.941 728.722 96.0488 729.974 94.8769C731.226 93.705 732.171 92.2535 732.811 90.5223L746.314 92.0404C745.462 95.6093 743.837 98.7254 741.44 101.389C739.07 104.026 736.033 106.076 732.331 107.541C728.629 108.979 724.394 109.698 719.627 109.698Z" fill="url(#paint22_linear_170_2)"/>
<path d="M719.627 109.698C713.475 109.698 708.161 108.42 703.687 105.863C699.239 103.28 695.817 99.631 693.42 94.9168C691.023 90.1761 689.824 84.5964 689.824 78.1777C689.824 71.8655 691.023 66.3258 693.42 61.5584C695.843 56.7643 699.226 53.0356 703.567 50.3723C707.908 47.6823 713.009 46.3373 718.868 46.3373C722.65 46.3373 726.219 46.9499 729.575 48.175C732.957 49.3735 735.94 51.2379 738.524 53.7681C741.134 56.2982 743.184 59.5209 744.676 63.436C746.167 67.3245 746.913 71.9588 746.913 77.3387V81.7732H696.616V72.0253H733.05C733.024 69.2554 732.424 66.7918 731.253 64.6345C730.081 62.4506 728.443 60.7327 726.339 59.4809C724.261 58.2292 721.838 57.6033 719.068 57.6033C716.112 57.6033 713.515 58.3224 711.277 59.7606C709.04 61.1722 707.296 63.0365 706.044 65.3536C704.819 67.6441 704.193 70.161 704.166 72.9042V81.4137C704.166 84.9825 704.819 88.0454 706.124 90.6022C707.429 93.1324 709.253 95.0767 711.597 96.435C713.941 97.7666 716.684 98.4325 719.827 98.4325C721.931 98.4325 723.835 98.1395 725.54 97.5536C727.244 96.941 728.722 96.0488 729.974 94.8769C731.226 93.705 732.171 92.2535 732.811 90.5223L746.314 92.0404C745.462 95.6093 743.837 98.7254 741.44 101.389C739.07 104.026 736.033 106.076 732.331 107.541C728.629 108.979 724.394 109.698 719.627 109.698Z" fill="url(#paint23_radial_170_2)"/>
<path d="M755.773 108.5V47.1363H769.795V57.3636H770.435C771.553 53.8213 773.471 51.0914 776.188 49.1738C778.931 47.2295 782.06 46.2574 785.576 46.2574C786.375 46.2574 787.267 46.2974 788.253 46.3773C789.265 46.4305 790.104 46.5237 790.769 46.6569V59.9604C790.157 59.7473 789.185 59.5608 787.853 59.401C786.548 59.2146 785.283 59.1214 784.058 59.1214C781.421 59.1214 779.051 59.694 776.947 60.8393C774.869 61.9579 773.231 63.5159 772.033 65.5134C770.834 67.511 770.235 69.8148 770.235 72.4248V108.5H755.773Z" fill="black"/>
<path d="M755.773 108.5V47.1363H769.795V57.3636H770.435C771.553 53.8213 773.471 51.0914 776.188 49.1738C778.931 47.2295 782.06 46.2574 785.576 46.2574C786.375 46.2574 787.267 46.2974 788.253 46.3773C789.265 46.4305 790.104 46.5237 790.769 46.6569V59.9604C790.157 59.7473 789.185 59.5608 787.853 59.401C786.548 59.2146 785.283 59.1214 784.058 59.1214C781.421 59.1214 779.051 59.694 776.947 60.8393C774.869 61.9579 773.231 63.5159 772.033 65.5134C770.834 67.511 770.235 69.8148 770.235 72.4248V108.5H755.773Z" fill="url(#paint24_linear_170_2)"/>
<path d="M755.773 108.5V47.1363H769.795V57.3636H770.435C771.553 53.8213 773.471 51.0914 776.188 49.1738C778.931 47.2295 782.06 46.2574 785.576 46.2574C786.375 46.2574 787.267 46.2974 788.253 46.3773C789.265 46.4305 790.104 46.5237 790.769 46.6569V59.9604C790.157 59.7473 789.185 59.5608 787.853 59.401C786.548 59.2146 785.283 59.1214 784.058 59.1214C781.421 59.1214 779.051 59.694 776.947 60.8393C774.869 61.9579 773.231 63.5159 772.033 65.5134C770.834 67.511 770.235 69.8148 770.235 72.4248V108.5H755.773Z" fill="url(#paint25_radial_170_2)"/>
<defs>
<linearGradient id="paint0_linear_170_2" x1="102.25" y1="22.5" x2="43.1875" y2="123.75" gradientUnits="userSpaceOnUse">
<stop stop-color="#1A83FF"/>
<stop offset="1" stop-color="#B14EFF"/>
</linearGradient>
<radialGradient id="paint1_radial_170_2" cx="0" cy="0" r="1" gradientUnits="userSpaceOnUse" gradientTransform="translate(29.125 36.5625) rotate(42.0892) scale(117.487)">
<stop stop-color="#37DBFF"/>
<stop offset="1" stop-color="#3757FF" stop-opacity="0.08"/>
</radialGradient>
<linearGradient id="paint2_linear_170_2" x1="366.039" y1="26.4999" x2="376.74" y2="135.88" gradientUnits="userSpaceOnUse">
<stop stop-color="#1A83FF"/>
<stop offset="1" stop-color="#B14EFF"/>
</linearGradient>
<radialGradient id="paint3_radial_170_2" cx="0" cy="0" r="1" gradientUnits="userSpaceOnUse" gradientTransform="translate(156.5 26.4999) rotate(24.9796) scale(194.177 45.1135)">
<stop stop-color="#37DBFF"/>
<stop offset="1" stop-color="#3757FF" stop-opacity="0.08"/>
</radialGradient>
<linearGradient id="paint4_linear_170_2" x1="366.039" y1="26.4999" x2="376.74" y2="135.88" gradientUnits="userSpaceOnUse">
<stop stop-color="#1A83FF"/>
<stop offset="1" stop-color="#B14EFF"/>
</linearGradient>
<radialGradient id="paint5_radial_170_2" cx="0" cy="0" r="1" gradientUnits="userSpaceOnUse" gradientTransform="translate(156.5 26.4999) rotate(24.9796) scale(194.177 45.1135)">
<stop stop-color="#37DBFF"/>
<stop offset="1" stop-color="#3757FF" stop-opacity="0.08"/>
</radialGradient>
<linearGradient id="paint6_linear_170_2" x1="366.039" y1="26.4999" x2="376.74" y2="135.88" gradientUnits="userSpaceOnUse">
<stop stop-color="#1A83FF"/>
<stop offset="1" stop-color="#B14EFF"/>
</linearGradient>
<radialGradient id="paint7_radial_170_2" cx="0" cy="0" r="1" gradientUnits="userSpaceOnUse" gradientTransform="translate(156.5 26.4999) rotate(24.9796) scale(194.177 45.1135)">
<stop stop-color="#37DBFF"/>
<stop offset="1" stop-color="#3757FF" stop-opacity="0.08"/>
</radialGradient>
<linearGradient id="paint8_linear_170_2" x1="366.039" y1="26.4999" x2="376.74" y2="135.88" gradientUnits="userSpaceOnUse">
<stop stop-color="#1A83FF"/>
<stop offset="1" stop-color="#B14EFF"/>
</linearGradient>
<radialGradient id="paint9_radial_170_2" cx="0" cy="0" r="1" gradientUnits="userSpaceOnUse" gradientTransform="translate(156.5 26.4999) rotate(24.9796) scale(194.177 45.1135)">
<stop stop-color="#37DBFF"/>
<stop offset="1" stop-color="#3757FF" stop-opacity="0.08"/>
</radialGradient>
<linearGradient id="paint10_linear_170_2" x1="366.039" y1="26.4999" x2="376.74" y2="135.88" gradientUnits="userSpaceOnUse">
<stop stop-color="#1A83FF"/>
<stop offset="1" stop-color="#B14EFF"/>
</linearGradient>
<radialGradient id="paint11_radial_170_2" cx="0" cy="0" r="1" gradientUnits="userSpaceOnUse" gradientTransform="translate(156.5 26.4999) rotate(24.9796) scale(194.177 45.1135)">
<stop stop-color="#37DBFF"/>
<stop offset="1" stop-color="#3757FF" stop-opacity="0.08"/>
</radialGradient>
<linearGradient id="paint12_linear_170_2" x1="366.039" y1="26.4999" x2="376.74" y2="135.88" gradientUnits="userSpaceOnUse">
<stop stop-color="#1A83FF"/>
<stop offset="1" stop-color="#B14EFF"/>
</linearGradient>
<radialGradient id="paint13_radial_170_2" cx="0" cy="0" r="1" gradientUnits="userSpaceOnUse" gradientTransform="translate(156.5 26.4999) rotate(24.9796) scale(194.177 45.1135)">
<stop stop-color="#37DBFF"/>
<stop offset="1" stop-color="#3757FF" stop-opacity="0.08"/>
</radialGradient>
<linearGradient id="paint14_linear_170_2" x1="366.039" y1="26.4999" x2="376.74" y2="135.88" gradientUnits="userSpaceOnUse">
<stop stop-color="#1A83FF"/>
<stop offset="1" stop-color="#B14EFF"/>
</linearGradient>
<radialGradient id="paint15_radial_170_2" cx="0" cy="0" r="1" gradientUnits="userSpaceOnUse" gradientTransform="translate(156.5 26.4999) rotate(24.9796) scale(194.177 45.1135)">
<stop stop-color="#37DBFF"/>
<stop offset="1" stop-color="#3757FF" stop-opacity="0.08"/>
</radialGradient>
<linearGradient id="paint16_linear_170_2" x1="366.039" y1="26.4999" x2="376.74" y2="135.88" gradientUnits="userSpaceOnUse">
<stop stop-color="#1A83FF"/>
<stop offset="1" stop-color="#B14EFF"/>
</linearGradient>
<radialGradient id="paint17_radial_170_2" cx="0" cy="0" r="1" gradientUnits="userSpaceOnUse" gradientTransform="translate(156.5 26.4999) rotate(24.9796) scale(194.177 45.1135)">
<stop stop-color="#37DBFF"/>
<stop offset="1" stop-color="#3757FF" stop-opacity="0.08"/>
</radialGradient>
<linearGradient id="paint18_linear_170_2" x1="366.039" y1="26.4999" x2="376.74" y2="135.88" gradientUnits="userSpaceOnUse">
<stop stop-color="#1A83FF"/>
<stop offset="1" stop-color="#B14EFF"/>
</linearGradient>
<radialGradient id="paint19_radial_170_2" cx="0" cy="0" r="1" gradientUnits="userSpaceOnUse" gradientTransform="translate(156.5 26.4999) rotate(24.9796) scale(194.177 45.1135)">
<stop stop-color="#37DBFF"/>
<stop offset="1" stop-color="#3757FF" stop-opacity="0.08"/>
</radialGradient>
<linearGradient id="paint20_linear_170_2" x1="366.039" y1="26.4999" x2="376.74" y2="135.88" gradientUnits="userSpaceOnUse">
<stop stop-color="#1A83FF"/>
<stop offset="1" stop-color="#B14EFF"/>
</linearGradient>
<radialGradient id="paint21_radial_170_2" cx="0" cy="0" r="1" gradientUnits="userSpaceOnUse" gradientTransform="translate(156.5 26.4999) rotate(24.9796) scale(194.177 45.1135)">
<stop stop-color="#37DBFF"/>
<stop offset="1" stop-color="#3757FF" stop-opacity="0.08"/>
</radialGradient>
<linearGradient id="paint22_linear_170_2" x1="366.039" y1="26.4999" x2="376.74" y2="135.88" gradientUnits="userSpaceOnUse">
<stop stop-color="#1A83FF"/>
<stop offset="1" stop-color="#B14EFF"/>
</linearGradient>
<radialGradient id="paint23_radial_170_2" cx="0" cy="0" r="1" gradientUnits="userSpaceOnUse" gradientTransform="translate(156.5 26.4999) rotate(24.9796) scale(194.177 45.1135)">
<stop stop-color="#37DBFF"/>
<stop offset="1" stop-color="#3757FF" stop-opacity="0.08"/>
</radialGradient>
<linearGradient id="paint24_linear_170_2" x1="366.039" y1="26.4999" x2="376.74" y2="135.88" gradientUnits="userSpaceOnUse">
<stop stop-color="#1A83FF"/>
<stop offset="1" stop-color="#B14EFF"/>
</linearGradient>
<radialGradient id="paint25_radial_170_2" cx="0" cy="0" r="1" gradientUnits="userSpaceOnUse" gradientTransform="translate(156.5 26.4999) rotate(24.9796) scale(194.177 45.1135)">
<stop stop-color="#37DBFF"/>
<stop offset="1" stop-color="#3757FF" stop-opacity="0.08"/>
</radialGradient>
</defs>
</svg>
